# xmcd
#
# Track frame offsets:
#	150
#	13819
#	29413
#	75128
#	108222
#	128078
#	139780
#	157799
#	182468
#	197700
#	234113
#	253609
#	281114
#	297279
#
# Disc length: 4244 seconds
#
# Revision: 0
# Processed by: cddbd v1.5.2PL0 Copyright (c) Steve Scherf et al.
# Submitted via: audiograbber 1.83.01
#
DISCID=ae10920e
DTITLE=Keef Hartley Band - The Time Is Near - Overdog
DYEAR=2003
DGENRE=Blues
TTITLE0=Morning Rain
TTITLE1=From The Window
TTITLE2=The Time Is Near
TTITLE3=You Can't Take It With You
TTITLE4=Premonition
TTITLE5=Another Time, Another Place
TTITLE6=Change
TTITLE7=You Can Choose
TTITLE8=Plain Talking
TTITLE9=Theme Song, En Route, Theme Song-Reprise
TTITLE10=Overdog
TTITLE11=Roundabout
TTITLE12=Imitations From Home
TTITLE13=We Are All The Same
EXTD=
EXTT0=
EXTT1=
EXTT2=
EXTT3=
EXTT4=
EXTT5=
EXTT6=
EXTT7=
EXTT8=
EXTT9=
EXTT10=
EXTT11=
EXTT12=
EXTT13=
PLAYORDER=
